<svg version="1.1" id="prefix__Layer_1" xmlns="http://www.w3.org/2000/svg" xmlns:xlink="http://www.w3.org/1999/xlink" x="0" y="0" viewBox="0 0 115.095 80.865" xml:space="preserve"><style>.prefix__st1{fill-rule:evenodd;clip-rule:evenodd;fill:#13a89d}</style><linearGradient id="prefix__SVGID_1_" gradientUnits="userSpaceOnUse" x1="-520.07" y1="-875.994" x2="-519.363" y2="-875.287"><stop offset="0" stop-color="#dedfe3"/><stop offset=".178" stop-color="#dadbdf"/><stop offset=".361" stop-color="#cecfd3"/><stop offset=".546" stop-color="#b9bcbf"/><stop offset=".732" stop-color="#9ca0a2"/><stop offset=".918" stop-color="#787d7e"/><stop offset="1" stop-color="#656b6c"/></linearGradient><path d="M12.46 34.511c2.728-12.948 14.213-22.669 27.973-22.669s25.245 9.722 27.972 22.67H25.078l11.845 11.842H75.81c2.745 0 4.976-2.197 5.043-4.942.008-.325.012-.652.012-.98C80.865 17.58 61.905-.844 38.857.03 17.901.826.826 17.9.03 38.857c-.875 23.048 17.55 42.008 40.403 42.008 8.755 0 16.855-2.789 23.472-7.52l-8.527-8.542a28.443 28.443 0 01-14.945 4.22c-13.76 0-25.245-9.721-27.973-22.67a28.233 28.233 0 010-11.842z" fill-rule="evenodd" clip-rule="evenodd" fill="#00aeef"/><path class="prefix__st1" d="M115.095 37.202l-2.69-2.691h-.201l-2.692 2.692 2.791 2.791zM103.928 37.203l-2.692-2.692h-.198l-5.485 5.485 2.791 2.791z"/><path transform="rotate(-45.001 84.384 53.957)" class="prefix__st1" d="M82.41 51.982h3.949v3.947H82.41z"/><path transform="rotate(-45.001 103.928 45.58)" class="prefix__st1" d="M101.953 43.605h3.949v3.947h-3.949z"/><path transform="rotate(-45.001 92.76 45.581)" class="prefix__st1" d="M90.786 43.606h3.949v3.947h-3.949z"/><path class="prefix__st1" d="M109.512 37.203l-2.692-2.692h-.2l-2.692 2.692 2.792 2.792zM92.76 53.956l2.791 2.791 5.584-5.584-2.791-2.792-2.792 2.793-2.792-2.793-5.584 5.585 2.792 2.792zM89.968 56.748l-2.792 2.792-2.792-2.792-2.792 2.792 2.792 2.792-2.792 2.792-2.792-2.792 2.792-2.792-2.791-2.792-7.368 7.368-29.604-29.605H25.081l46.354 46.354 21.324-21.326z"/><path transform="rotate(-45.001 98.344 45.58)" class="prefix__st1" d="M96.37 43.605h3.949v3.949H96.37z"/><g><defs><path id="prefix__SVGID_00000134247496744798268660000014320796869443498145_" d="M75.81 46.354c2.745 0 4.976-2.197 5.043-4.942.008-.326.012-.652.012-.98C80.865 17.58 61.905-.846 38.857.03 17.901.826.826 17.9.03 38.857c-.875 23.048 17.55 42.008 40.403 42.008 8.755 0 16.855-2.789 23.472-7.52l-8.535-8.537a28.41 28.41 0 01-14.937 4.215c-13.76 0-25.245-9.721-27.973-22.67h63.35zM40.433 11.842c13.759 0 25.245 9.721 27.972 22.67H12.46c2.727-12.948 14.213-22.67 27.973-22.67z"/></defs><clipPath id="prefix__SVGID_00000145053854900896265110000005766159584570605213_"><use xlink:href="#prefix__SVGID_00000134247496744798268660000014320796869443498145_" overflow="visible"/></clipPath><linearGradient id="prefix__SVGID_00000051357159859158378540000006278246324132388772_" gradientUnits="userSpaceOnUse" x1="-980.459" y1="-47.148" x2="-916.688" y2="-47.148" gradientTransform="matrix(.2109 -.2109 .9026 .9026 291.562 -85.702)"><stop offset="0" stop-color="#001b54" stop-opacity="0"/><stop offset="1" stop-color="#001b54"/></linearGradient><path opacity=".7" clip-path="url(#prefix__SVGID_00000145053854900896265110000005766159584570605213_)" fill-rule="evenodd" clip-rule="evenodd" fill="url(#prefix__SVGID_00000051357159859158378540000006278246324132388772_)" d="M63.897 73.35l-5.894 20.993-31.599-31.599 28.966 2.064z"/><linearGradient id="prefix__SVGID_00000130611384429838127560000000677931918765528737_" gradientUnits="userSpaceOnUse" x1="826.273" y1="-640.875" x2="890.388" y2="-640.875" gradientTransform="rotate(135.003 35.533 -489.65) scale(.4644 1.3681)"><stop offset="0" stop-color="#a6ce39" stop-opacity="0"/><stop offset=".644" stop-color="#a6ce39"/></linearGradient><path clip-path="url(#prefix__SVGID_00000145053854900896265110000005766159584570605213_)" fill-rule="evenodd" clip-rule="evenodd" fill="url(#prefix__SVGID_00000130611384429838127560000000677931918765528737_)" d="M24.939 34.381l21.058-21.058 33.862 33.862-21.058 21.058z"/></g><g><defs><path id="prefix__SVGID_00000046300593977662180640000014494587337219058578_" d="M71.433 64.116L41.826 34.509H25.078l46.357 46.356z"/></defs><clipPath id="prefix__SVGID_00000108308254590787689070000011567228462215638197_"><use xlink:href="#prefix__SVGID_00000046300593977662180640000014494587337219058578_" overflow="visible"/></clipPath><linearGradient id="prefix__SVGID_00000109714523982636821940000014324019807130372781_" gradientUnits="userSpaceOnUse" x1="-1908.28" y1="-461.727" x2="-1870.654" y2="-461.727" gradientTransform="matrix(0 -.482 1.4856 0 737.207 -855.71)"><stop offset="0" stop-color="#a6ce39" stop-opacity="0"/><stop offset="1" stop-color="#a6ce39"/></linearGradient><path clip-path="url(#prefix__SVGID_00000108308254590787689070000011567228462215638197_)" fill-rule="evenodd" clip-rule="evenodd" fill="url(#prefix__SVGID_00000109714523982636821940000014324019807130372781_)" d="M71.433 45.979v18.137h-40.29V45.979z"/></g></svg>